<?xml version="1.0" encoding="UTF-8"?>
<!DOCTYPE svg PUBLIC "-//W3C//DTD SVG 1.1//EN" "http://www.w3.org/Graphics/SVG/1.1/DTD/svg11.dtd">
<svg xmlns="http://www.w3.org/2000/svg" version="1.1" width="808px" height="241px" style="shape-rendering:geometricPrecision; text-rendering:geometricPrecision; image-rendering:optimizeQuality; fill-rule:evenodd; clip-rule:evenodd" xmlns:xlink="http://www.w3.org/1999/xlink">
<g><path style="opacity:1" fill="#f9f9f9" d="M -0.5,-0.5 C 268.833,-0.5 538.167,-0.5 807.5,-0.5C 807.5,79.8333 807.5,160.167 807.5,240.5C 538.167,240.5 268.833,240.5 -0.5,240.5C -0.5,160.167 -0.5,79.8333 -0.5,-0.5 Z"/></g>
<g><path style="opacity:1" fill="#dee0e1" d="M 19.5,40.5 C 19.4257,48.6192 22.0923,55.6192 27.5,61.5C 25.9826,61.4894 24.8159,60.8228 24,59.5C 22.9887,60.3366 21.8221,60.67 20.5,60.5C 20.1119,58.3153 19.1119,56.482 17.5,55C 17.9504,53.7147 18.6171,52.548 19.5,51.5C 18.2073,47.7011 18.2073,44.0344 19.5,40.5 Z"/></g>
<g><path style="opacity:1" fill="#8d8f96" d="M 53.5,63.5 C 52.653,64.9663 51.3197,65.7996 49.5,66C 44.6478,66.8151 39.9811,66.6484 35.5,65.5C 41.6544,65.8996 47.6544,65.2329 53.5,63.5 Z"/></g>
<g><path style="opacity:1" fill="#0c121e" d="M 77.5,62.5 C 82.248,67.5841 87.5813,71.9174 93.5,75.5C 100.831,82.1577 108.498,88.4911 116.5,94.5C 117.524,93.1482 118.524,91.8149 119.5,90.5C 130.172,79.828 140.505,68.828 150.5,57.5C 151.586,57.38 152.253,56.7133 152.5,55.5C 151.866,52.5844 150.866,49.9178 149.5,47.5C 148.181,33.6585 154.181,24.8252 167.5,21C 188.95,21.1101 197.45,31.6101 193,52.5C 190.686,56.975 187.52,60.6417 183.5,63.5C 181.45,63.9612 179.45,64.6279 177.5,65.5C 176.5,92.4918 176.167,119.492 176.5,146.5C 176.5,146.833 176.5,147.167 176.5,147.5C 174.164,149.391 171.498,149.891 168.5,149C 158.625,140.952 148.625,133.119 138.5,125.5C 119.816,109.486 100.816,93.819 81.5,78.5C 74.3574,72.1979 67.0241,66.0312 59.5,60C 58.8333,59.3333 58.1667,59.3333 57.5,60C 56.2949,61.3756 54.9616,62.5423 53.5,63.5C 47.6544,65.2329 41.6544,65.8996 35.5,65.5C 32.5881,64.5711 29.9214,63.2378 27.5,61.5C 22.0923,55.6192 19.4257,48.6192 19.5,40.5C 22.1223,28.3791 29.6223,21.7125 42,20.5C 60.4142,23.3014 68.0809,33.968 65,52.5C 69.0413,56.0469 73.208,59.3802 77.5,62.5 Z"/></g>
<g><path style="opacity:1" fill="#e1e1e3" d="M 93.5,75.5 C 87.5813,71.9174 82.248,67.5841 77.5,62.5C 79.0603,62.4809 80.5603,62.1476 82,61.5C 83.6116,63.6575 85.7782,64.9908 88.5,65.5C 89.4519,67.0453 89.7852,68.712 89.5,70.5C 90.9778,70.238 92.3112,70.5713 93.5,71.5C 92.1931,72.865 92.1931,74.1984 93.5,75.5 Z"/></g>
<g><path style="opacity:1" fill="#71747c" d="M 178.5,55.5 C 178.389,56.1174 178.056,56.6174 177.5,57C 173.973,57.8075 170.64,57.6408 167.5,56.5C 171.234,56.6773 174.901,56.3439 178.5,55.5 Z"/></g>
<g><path style="opacity:1" fill="#afb1b7" d="M 149.5,47.5 C 150.866,49.9178 151.866,52.5844 152.5,55.5C 152.253,56.7133 151.586,57.38 150.5,57.5C 150.384,54.1401 150.051,50.8067 149.5,47.5 Z"/></g>
<g><path style="opacity:1" fill="#e5e5e7" d="M 178.5,55.5 C 174.901,56.3439 171.234,56.6773 167.5,56.5C 164.573,55.2427 162.239,53.2427 160.5,50.5C 162.435,49.8505 164.435,49.5172 166.5,49.5C 166.63,52.2978 167.964,54.2978 170.5,55.5C 174.393,54.1822 177.727,52.0155 180.5,49C 179.089,45.369 179.422,41.869 181.5,38.5C 182.396,39.5063 183.062,39.5063 183.5,38.5C 182.184,35.6673 180.184,34.834 177.5,36C 176.663,34.9887 176.33,33.8221 176.5,32.5C 172.921,32.3163 169.587,32.983 166.5,34.5C 166.5,35.8333 166.5,37.1667 166.5,38.5C 164.549,38.2267 163.049,38.8934 162,40.5C 161.658,38.3808 160.825,38.0474 159.5,39.5C 163.548,30.2045 170.215,27.7045 179.5,32C 185.589,36.9898 187.089,43.1565 184,50.5C 182.296,52.3734 180.463,54.0401 178.5,55.5 Z"/></g>
<g><path style="opacity:1" fill="#f6f6f7" d="M 160.5,50.5 C 158.463,46.8885 158.13,43.2218 159.5,39.5C 160.825,38.0474 161.658,38.3808 162,40.5C 163.049,38.8934 164.549,38.2267 166.5,38.5C 166.5,37.1667 166.5,35.8333 166.5,34.5C 169.587,32.983 172.921,32.3163 176.5,32.5C 176.33,33.8221 176.663,34.9887 177.5,36C 180.184,34.834 182.184,35.6673 183.5,38.5C 183.062,39.5063 182.396,39.5063 181.5,38.5C 179.422,41.869 179.089,45.369 180.5,49C 177.727,52.0155 174.393,54.1822 170.5,55.5C 167.964,54.2978 166.63,52.2978 166.5,49.5C 164.435,49.5172 162.435,49.8505 160.5,50.5 Z"/></g>
<g><path style="opacity:1" fill="#eeeeef" d="M 45.5,30.5 C 56.798,34.7727 59.298,42.106 53,52.5C 43.5793,60.2142 35.746,58.8808 29.5,48.5C 27.1863,40.8064 29.5196,35.1397 36.5,31.5C 39.5176,31.2962 42.5176,30.9629 45.5,30.5 Z"/></g>
<g><path style="opacity:1" fill="#9c9ea7" d="M 45.5,30.5 C 42.5176,30.9629 39.5176,31.2962 36.5,31.5C 37.9461,30.0598 39.7794,29.3932 42,29.5C 43.3847,29.5143 44.5514,29.8476 45.5,30.5 Z"/></g>
<g><path style="opacity:1" fill="#dedee1" d="M 164.5,65.5 C 162.833,65.5 161.167,65.5 159.5,65.5C 159.649,66.552 159.483,67.552 159,68.5C 157.233,69.8172 155.899,71.4839 155,73.5C 154.275,72.9415 153.442,72.6082 152.5,72.5C 150.944,73.5471 149.277,74.2137 147.5,74.5C 150.963,70.5357 154.63,66.7023 158.5,63C 160.563,63.5255 162.563,64.3588 164.5,65.5 Z"/></g>
<g><path style="opacity:1" fill="#f8f8f8" d="M 164.5,65.5 C 166.458,79.9236 167.124,94.5903 166.5,109.5C 165.671,102.679 165.171,95.6787 165,88.5C 164.797,98.3676 164.297,108.201 163.5,118C 163.167,118.5 162.833,119 162.5,119.5C 160.833,118.833 159.167,118.167 157.5,117.5C 154.982,117.523 152.316,117.856 149.5,118.5C 149.5,117.5 149.5,116.5 149.5,115.5C 147.167,115.5 144.833,115.5 142.5,115.5C 140.251,114.92 138.585,113.587 137.5,111.5C 138.536,109.609 138.536,107.776 137.5,106C 134.671,104.753 132.005,103.253 129.5,101.5C 128.416,101.685 127.416,102.018 126.5,102.5C 123.952,100.962 123.952,99.2956 126.5,97.5C 128.697,99.9764 130.863,99.9764 133,97.5C 135.827,95.7457 135.994,93.9124 133.5,92C 134,91.5 134.5,91 135,90.5C 138.697,91.6433 139.197,90.8099 136.5,88C 137.907,86.548 139.407,86.7147 141,88.5C 141.333,87.5 141.667,86.5 142,85.5C 144.821,83.6776 147.321,81.5109 149.5,79C 148.177,78.1841 147.511,77.0174 147.5,75.5C 147.5,75.1667 147.5,74.8333 147.5,74.5C 149.277,74.2137 150.944,73.5471 152.5,72.5C 153.442,72.6082 154.275,72.9415 155,73.5C 155.899,71.4839 157.233,69.8172 159,68.5C 159.483,67.552 159.649,66.552 159.5,65.5C 161.167,65.5 162.833,65.5 164.5,65.5 Z"/></g>
<g><path style="opacity:1" fill="#e1e1e2" d="M 93.5,75.5 C 101.067,74.8533 105.567,78.1866 107,85.5C 107.561,84.9781 108.228,84.6448 109,84.5C 109.702,85.7948 110.369,87.1281 111,88.5C 111.561,87.9781 112.228,87.6448 113,87.5C 114.86,89.2009 117.027,90.2009 119.5,90.5C 118.524,91.8149 117.524,93.1482 116.5,94.5C 108.498,88.4911 100.831,82.1577 93.5,75.5 Z"/></g>
<g><path style="opacity:1" fill="#e3e3e5" d="M 147.5,75.5 C 147.511,77.0174 148.177,78.1841 149.5,79C 147.321,81.5109 144.821,83.6776 142,85.5C 141.667,86.5 141.333,87.5 141,88.5C 139.407,86.7147 137.907,86.548 136.5,88C 139.197,90.8099 138.697,91.6433 135,90.5C 134.5,91 134,91.5 133.5,92C 135.994,93.9124 135.827,95.7457 133,97.5C 130.863,99.9764 128.697,99.9764 126.5,97.5C 132.798,89.5344 139.798,82.2011 147.5,75.5 Z"/></g>
<g><path style="opacity:1" fill="#e1e2e4" d="M 757.5,95.5 C 755.321,92.7033 753.654,89.5367 752.5,86C 747.845,85.5008 743.179,85.3342 738.5,85.5C 738.5,84.5 738.5,83.5 738.5,82.5C 743.179,82.3342 747.845,82.5008 752.5,83C 754.115,86.3792 755.949,89.5459 758,92.5C 758.333,91.8333 758.667,91.1667 759,90.5C 758.725,92.606 758.225,94.2726 757.5,95.5 Z"/></g>
<g><path style="opacity:1" fill="#050a16" d="M 168.5,66.5 C 169.468,68.6074 169.802,70.9407 169.5,73.5C 170.822,73.33 171.989,73.6634 173,74.5C 173.758,76.7695 173.591,78.9361 172.5,81C 173.227,82.3988 173.727,83.8988 174,85.5C 174.333,83.1667 174.667,80.8333 175,78.5C 175.667,97.8333 175.667,117.167 175,136.5C 174.15,135.576 173.15,135.576 172,136.5C 171.055,136.095 170.388,135.428 170,134.5C 169.841,136.343 169.341,137.009 168.5,136.5C 168.5,113.167 168.5,89.8333 168.5,66.5 Z"/></g>
<g><path style="opacity:1" fill="#b0b3b6" d="M 475.5,85.5 C 480.305,84.5128 485.305,84.1795 490.5,84.5C 490.737,85.791 490.404,86.791 489.5,87.5C 485.285,85.5636 480.619,84.8969 475.5,85.5 Z"/></g>
<g><path style="opacity:1" fill="#d5d6d8" d="M 581.5,96.5 C 577.322,91.9125 572.322,88.5792 566.5,86.5C 565.737,85.7321 564.737,85.2321 563.5,85C 558.177,84.5006 552.844,84.334 547.5,84.5C 552.679,83.7416 558.012,83.0749 563.5,82.5C 569.098,83.3787 574.098,85.5453 578.5,89C 578.043,89.414 577.709,89.914 577.5,90.5C 579.278,92.264 580.611,94.264 581.5,96.5 Z"/></g>
<g><path style="opacity:1" fill="#43444c" d="M 342.5,86.5 C 359.325,85.5034 376.325,85.1701 393.5,85.5C 393.5,89.5 393.5,93.5 393.5,97.5C 393.167,97.5 392.833,97.5 392.5,97.5C 392.5,93.8333 392.5,90.1667 392.5,86.5C 375.833,86.5 359.167,86.5 342.5,86.5 Z"/></g>
<g><path style="opacity:1" fill="#424249" d="M 426.5,86.5 C 430.97,85.5139 435.637,85.1805 440.5,85.5C 441.338,85.8417 441.672,86.5084 441.5,87.5C 436.595,86.5546 431.595,86.2213 426.5,86.5 Z"/></g>
<g><path style="opacity:1" fill="#41424a" d="M 474.5,86.5 C 474.5,85.8333 474.833,85.5 475.5,85.5C 480.619,84.8969 485.285,85.5636 489.5,87.5C 489.5,88.1667 489.167,88.5 488.5,88.5C 484.285,86.5636 479.619,85.8969 474.5,86.5 Z"/></g>
<g><path style="opacity:1" fill="#575b64" d="M 547.5,84.5 C 552.844,84.334 558.177,84.5006 563.5,85C 564.737,85.2321 565.737,85.7321 566.5,86.5C 557.081,84.9565 547.747,85.2898 538.5,87.5C 541.145,85.6896 544.145,84.6896 547.5,84.5 Z"/></g>
<g><path style="opacity:1" fill="#d7d7da" d="M 440.5,85.5 C 435.637,85.1805 430.97,85.5139 426.5,86.5C 429.094,90.0256 431.427,93.6923 433.5,97.5C 432.206,96.7101 431.039,95.7101 430,94.5C 429.29,95.9733 428.124,96.6399 426.5,96.5C 427.244,93.0504 425.91,91.3838 422.5,91.5C 422.781,89.0372 423.781,86.8705 425.5,85C 430.684,84.1837 435.684,84.3503 440.5,85.5 Z"/></g>
<g><path style="opacity:1" fill="#050d19" d="M 664.5,86.5 C 670.769,88.2814 675.436,91.948 678.5,97.5C 678.427,99.0269 679.094,100.027 680.5,100.5C 682.805,113.007 678.472,122.007 667.5,127.5C 665.448,128.053 665.115,129.053 666.5,130.5C 671.25,136.577 675.583,142.91 679.5,149.5C 679.414,150.496 679.748,151.329 680.5,152C 675.845,152.499 671.179,152.666 666.5,152.5C 661.982,144.783 656.982,137.449 651.5,130.5C 646.695,129.513 641.695,129.179 636.5,129.5C 636.5,137.167 636.5,144.833 636.5,152.5C 632.833,152.5 629.167,152.5 625.5,152.5C 625.5,130.5 625.5,108.5 625.5,86.5C 638.5,86.5 651.5,86.5 664.5,86.5 Z"/></g>
<g><path style="opacity:1" fill="#eaebec" d="M 166.5,109.5 C 166.666,117.507 166.5,125.507 166,133.5C 165.329,132.748 164.496,132.414 163.5,132.5C 156.205,127.206 149.205,121.539 142.5,115.5C 144.833,115.5 147.167,115.5 149.5,115.5C 149.5,116.5 149.5,117.5 149.5,118.5C 152.316,117.856 154.982,117.523 157.5,117.5C 159.167,118.167 160.833,118.833 162.5,119.5C 162.833,119 163.167,118.5 163.5,118C 164.297,108.201 164.797,98.3676 165,88.5C 165.171,95.6787 165.671,102.679 166.5,109.5 Z"/></g>
<g><path style="opacity:1" fill="#080f1a" d="M 738.5,85.5 C 743.179,85.3342 747.845,85.5008 752.5,86C 753.654,89.5367 755.321,92.7033 757.5,95.5C 758.843,99.5141 760.176,103.514 761.5,107.5C 761.357,109.262 761.691,110.929 762.5,112.5C 762.023,113.478 761.357,114.311 760.5,115C 762.081,115.707 763.581,116.54 765,117.5C 765.424,120.025 766.59,122.025 768.5,123.5C 768.874,129.919 771.207,135.253 775.5,139.5C 775.733,141.062 776.4,142.395 777.5,143.5C 778.11,144.391 778.443,145.391 778.5,146.5C 778.357,148.262 778.691,149.929 779.5,151.5C 775.119,152.77 770.785,152.77 766.5,151.5C 764.829,147.456 763.162,143.456 761.5,139.5C 752.313,138.735 742.98,137.901 733.5,137C 734.833,136.667 736.167,136.333 737.5,136C 736.663,134.989 736.33,133.822 736.5,132.5C 740.182,132.665 743.848,132.499 747.5,132C 747.833,131.667 748.167,131.333 748.5,131C 747.5,130.667 746.5,130.333 745.5,130C 745.833,129.667 746.167,129.333 746.5,129C 749.695,128.819 752.695,128.319 755.5,127.5C 756.403,124.908 755.736,122.574 753.5,120.5C 751.417,114.256 748.751,108.256 745.5,102.5C 741.084,109.332 737.751,116.666 735.5,124.5C 734.833,124.5 734.5,124.833 734.5,125.5C 733.883,125.611 733.383,125.944 733,126.5C 729.651,126.001 726.484,125.001 723.5,123.5C 724.052,121.667 724.885,120 726,118.5C 726.333,118.833 726.667,119.167 727,119.5C 729.996,118.71 732.829,117.544 735.5,116C 738.341,112.164 737.341,109.664 732.5,108.5C 731.133,109.225 729.8,109.892 728.5,110.5C 731.855,102.088 735.188,93.7546 738.5,85.5 Z"/></g>
<g><path style="opacity:1" fill="#41474d" d="M 167.5,65.5 C 168.167,65.5 168.5,65.8333 168.5,66.5C 168.5,89.8333 168.5,113.167 168.5,136.5C 167.508,136.672 166.842,136.338 166.5,135.5C 167.498,112.339 167.831,89.006 167.5,65.5 Z"/></g>
<g><path style="opacity:1" fill="#c6c9cb" d="M 164.5,65.5 C 165.5,65.5 166.5,65.5 167.5,65.5C 167.831,89.006 167.498,112.339 166.5,135.5C 165.167,134.833 164.167,133.833 163.5,132.5C 164.496,132.414 165.329,132.748 166,133.5C 166.5,125.507 166.666,117.507 166.5,109.5C 167.124,94.5903 166.458,79.9236 164.5,65.5 Z"/></g>
<g><path style="opacity:1" fill="#e3e4e5" d="M 666.5,153.5 C 671.5,153.5 676.5,153.5 681.5,153.5C 681.771,151.62 681.104,150.287 679.5,149.5C 675.583,142.91 671.25,136.577 666.5,130.5C 666.557,129.391 666.89,128.391 667.5,127.5C 678.472,122.007 682.805,113.007 680.5,100.5C 680.573,98.9731 679.906,97.9731 678.5,97.5C 675.436,91.948 670.769,88.2814 664.5,86.5C 651.344,85.5044 638.01,85.1711 624.5,85.5C 624.5,84.5 624.5,83.5 624.5,82.5C 637.504,82.3334 650.504,82.5001 663.5,83C 668.46,85.1436 673.46,87.3103 678.5,89.5C 679.711,90.2739 679.711,91.1072 678.5,92C 679.891,93.02 681.391,93.8534 683,94.5C 683.353,95.6716 683.187,96.8382 682.5,98C 683.098,99.3012 684.098,100.135 685.5,100.5C 686.494,105.456 686.827,110.456 686.5,115.5C 685.167,115.5 683.833,115.5 682.5,115.5C 682.519,117.06 682.852,118.56 683.5,120C 681.855,121.645 680.188,123.312 678.5,125C 677.451,125.492 676.451,125.326 675.5,124.5C 673.656,127.637 671.989,130.804 670.5,134C 673.482,134.498 676.482,134.665 679.5,134.5C 679.863,136.911 678.863,138.411 676.5,139C 677.448,139.483 678.448,139.649 679.5,139.5C 679.703,141.39 679.037,142.89 677.5,144C 678.025,144.692 678.692,145.192 679.5,145.5C 680.736,144.754 682.07,144.421 683.5,144.5C 681.833,148.833 683.167,150.167 687.5,148.5C 687.725,150.716 686.892,152.383 685,153.5C 679.022,154.672 672.856,154.672 666.5,153.5 Z"/></g>
<g><path style="opacity:1" fill="#dddddf" d="M 738.5,85.5 C 735.188,93.7546 731.855,102.088 728.5,110.5C 728.167,110.5 727.833,110.5 727.5,110.5C 725.639,108.255 724.639,105.588 724.5,102.5C 726.716,102.725 728.383,101.892 729.5,100C 727.808,98.5993 727.141,96.7659 727.5,94.5C 729.877,94.7845 732.044,94.7845 734,94.5C 732.651,92.1955 731.818,89.5288 731.5,86.5C 733.95,86.702 736.283,86.3686 738.5,85.5 Z"/></g>
<g><path style="opacity:1" fill="#0a111d" d="M 426.5,86.5 C 431.595,86.2213 436.595,86.5546 441.5,87.5C 447.463,94.0677 452.963,101.068 458,108.5C 463.752,101.316 469.252,93.9825 474.5,86.5C 479.619,85.8969 484.285,86.5636 488.5,88.5C 480.771,98.2259 473.438,108.226 466.5,118.5C 474.419,129.344 482.086,140.344 489.5,151.5C 485.03,152.486 480.363,152.819 475.5,152.5C 473.823,150.46 472.156,148.46 470.5,146.5C 466.831,140.506 462.664,134.84 458,129.5C 455.622,131.381 453.789,133.714 452.5,136.5C 448.454,141.214 444.788,146.214 441.5,151.5C 440.833,151.5 440.5,151.833 440.5,152.5C 435.637,152.819 430.97,152.486 426.5,151.5C 431.808,143.851 437.141,136.185 442.5,128.5C 445.37,125.787 447.704,122.62 449.5,119C 449.006,116.495 447.672,114.661 445.5,113.5C 441.984,107.8 437.984,102.467 433.5,97.5C 431.427,93.6923 429.094,90.0256 426.5,86.5 Z"/></g>
<g><path style="opacity:1" fill="#e0e1e3" d="M 433.5,97.5 C 437.984,102.467 441.984,107.8 445.5,113.5C 443.871,112.375 442.371,111.041 441,109.5C 437.85,111.161 436.35,110.161 436.5,106.5C 435.448,106.649 434.448,106.483 433.5,106C 432.292,103.75 430.959,101.583 429.5,99.5C 430.651,98.269 431.817,98.269 433,99.5C 433.464,98.9056 433.631,98.2389 433.5,97.5 Z"/></g>
<g><path style="opacity:1" fill="#8a8e95" d="M 292.5,85.5 C 292.5,85.8333 292.5,86.1667 292.5,86.5C 292.833,101.182 292.499,115.848 291.5,130.5C 290.893,130.376 290.56,130.043 290.5,129.5C 291.167,114.833 291.833,100.167 292.5,85.5 Z"/></g>
<g><path style="opacity:1" fill="#ededee" d="M 393.5,85.5 C 394.812,90.0152 394.812,94.6819 393.5,99.5C 387.217,100.294 380.884,100.794 374.5,101C 371.907,101.537 369.407,102.37 367,103.5C 365.2,102.622 363.367,101.955 361.5,101.5C 360.866,104.666 360.532,107.832 360.5,111C 369.676,111.17 378.676,111.67 387.5,112.5C 376.833,112.5 366.167,112.5 355.5,112.5C 355.5,107.833 355.5,103.167 355.5,98.5C 368.344,98.8287 381.011,98.4954 393.5,97.5C 393.5,93.5 393.5,89.5 393.5,85.5 Z"/></g>
<g><path style="opacity:1" fill="#808288" d="M 678.5,97.5 C 679.906,97.9731 680.573,98.9731 680.5,100.5C 679.094,100.027 678.427,99.0269 678.5,97.5 Z"/></g>
<g><path style="opacity:1" fill="#84888f" d="M 183.5,63.5 C 182.264,65.0428 180.598,66.0428 178.5,66.5C 177.833,93.3302 177.167,119.997 176.5,146.5C 176.167,119.492 176.5,92.4918 177.5,65.5C 179.45,64.6279 181.45,63.9612 183.5,63.5 Z"/></g>
<g><path style="opacity:1" fill="#6a7078" d="M 659.5,98.5 C 652.167,98.5 644.833,98.5 637.5,98.5C 637.5,104.833 637.5,111.167 637.5,117.5C 636.509,111.021 636.176,104.354 636.5,97.5C 644.352,97.1746 652.018,97.508 659.5,98.5 Z"/></g>
<g><path style="opacity:1" fill="#f7f7f8" d="M 662.5,99.5 C 663.167,99.8333 663.833,100.167 664.5,100.5C 666.143,104.3 666.81,108.3 666.5,112.5C 666.144,114.19 665.144,115.19 663.5,115.5C 655.2,116.371 646.867,116.705 638.5,116.5C 638.5,110.833 638.5,105.167 638.5,99.5C 646.5,99.5 654.5,99.5 662.5,99.5 Z"/></g>
<g><path style="opacity:1" fill="#e1e1e2" d="M 83.5,115.5 C 77.5813,111.917 72.248,107.584 67.5,102.5C 68.6948,102.322 69.8615,101.989 71,101.5C 73.2886,103.06 75.7886,104.227 78.5,105C 80.1554,106.444 80.822,108.278 80.5,110.5C 81.675,110.281 82.675,110.614 83.5,111.5C 82.1931,112.865 82.1931,114.198 83.5,115.5 Z"/></g>
<g><path style="opacity:1" fill="#dedfe1" d="M 137.5,111.5 C 133.273,109.215 129.607,106.215 126.5,102.5C 127.416,102.018 128.416,101.685 129.5,101.5C 132.005,103.253 134.671,104.753 137.5,106C 138.536,107.776 138.536,109.609 137.5,111.5 Z"/></g>
<g><path style="opacity:1" fill="#5d646c" d="M 524.5,100.5 C 524.573,102.027 523.906,103.027 522.5,103.5C 522.427,101.973 523.094,100.973 524.5,100.5 Z"/></g>
<g><path style="opacity:1" fill="#eeeeef" d="M 48.5,99.5 C 50.2459,101.252 52.2459,102.585 54.5,103.5C 64.7256,113.556 75.7256,122.722 87.5,131C 88.6872,132.019 89.6872,133.186 90.5,134.5C 90.1445,135.522 89.4778,136.189 88.5,136.5C 88.5,135.5 88.5,134.5 88.5,133.5C 79.8677,132.187 73.8677,127.521 70.5,119.5C 69.0222,119.762 67.6888,119.429 66.5,118.5C 67.5,116.167 66.8333,115.5 64.5,116.5C 63.0589,115.696 61.5589,115.029 60,114.5C 57.3449,116.82 54.6782,119.153 52,121.5C 51.9828,132.41 51.8161,143.243 51.5,154C 52.1409,158.452 52.8076,162.952 53.5,167.5C 54.1411,168.993 55.1411,169.993 56.5,170.5C 56.1583,171.338 55.4916,171.672 54.5,171.5C 52.4525,169.925 50.1192,168.925 47.5,168.5C 47.1692,145.327 47.5025,122.327 48.5,99.5 Z"/></g>
<g><path style="opacity:1" fill="#040d19" d="M 342.5,86.5 C 359.167,86.5 375.833,86.5 392.5,86.5C 392.5,90.1667 392.5,93.8333 392.5,97.5C 379.833,97.5 367.167,97.5 354.5,97.5C 354.179,102.695 354.513,107.695 355.5,112.5C 365.987,113.494 376.654,113.828 387.5,113.5C 387.5,117.167 387.5,120.833 387.5,124.5C 376.654,124.172 365.987,124.506 355.5,125.5C 354.512,130.64 354.179,135.974 354.5,141.5C 367.167,141.5 379.833,141.5 392.5,141.5C 392.5,145.167 392.5,148.833 392.5,152.5C 375.833,152.5 359.167,152.5 342.5,152.5C 342.5,130.5 342.5,108.5 342.5,86.5 Z"/></g>
<g><path style="opacity:1" fill="#676c75" d="M 392.5,97.5 C 392.833,97.5 393.167,97.5 393.5,97.5C 381.011,98.4954 368.344,98.8287 355.5,98.5C 355.5,103.167 355.5,107.833 355.5,112.5C 354.513,107.695 354.179,102.695 354.5,97.5C 367.167,97.5 379.833,97.5 392.5,97.5 Z"/></g>
<g><path style="opacity:1" fill="#bfc1c5" d="M 664.5,100.5 C 668.851,103.938 669.517,107.938 666.5,112.5C 666.81,108.3 666.143,104.3 664.5,100.5 Z"/></g>
<g><path style="opacity:1" fill="#31343c" d="M 292.5,86.5 C 292.5,86.1667 292.5,85.8333 292.5,85.5C 296.5,85.5 300.5,85.5 304.5,85.5C 304.5,108.167 304.5,130.833 304.5,153.5C 300.298,153.817 296.298,153.483 292.5,152.5C 296.167,152.5 299.833,152.5 303.5,152.5C 303.5,130.5 303.5,108.5 303.5,86.5C 299.833,86.5 296.167,86.5 292.5,86.5 Z"/></g>
<g><path style="opacity:1" fill="#08101d" d="M 566.5,86.5 C 572.322,88.5792 577.322,91.9125 581.5,96.5C 583.985,98.6523 585.651,101.319 586.5,104.5C 588.242,111.684 588.909,119.017 588.5,126.5C 588.263,129.647 587.43,132.647 586,135.5C 583.978,139.003 581.811,142.337 579.5,145.5C 576.851,147.14 574.184,148.807 571.5,150.5C 568.843,150.935 566.509,151.935 564.5,153.5C 558.87,154.292 553.203,154.625 547.5,154.5C 546.833,154.5 546.167,154.5 545.5,154.5C 543.491,152.935 541.157,151.935 538.5,151.5C 538.027,150.094 537.027,149.427 535.5,149.5C 528.717,145.546 523.884,139.88 521,132.5C 519.671,125.908 519.171,119.241 519.5,112.5C 520.265,109.33 521.265,106.33 522.5,103.5C 523.906,103.027 524.573,102.027 524.5,100.5C 527.885,94.7815 532.552,90.4481 538.5,87.5C 547.747,85.2898 557.081,84.9565 566.5,86.5 Z"/></g>
<g><path style="opacity:1" fill="#84878d" d="M 572.5,106.5 C 573.906,106.973 574.573,107.973 574.5,109.5C 573.094,109.027 572.427,108.027 572.5,106.5 Z"/></g>
<g><path style="opacity:1" fill="#f4f4f5" d="M 559.5,97.5 C 565.057,98.775 569.391,101.775 572.5,106.5C 572.427,108.027 573.094,109.027 574.5,109.5C 575.292,115.13 575.625,120.797 575.5,126.5C 574.227,128.713 573.227,131.046 572.5,133.5C 570.5,134.833 568.833,136.5 567.5,138.5C 556.782,144.724 546.949,143.724 538,135.5C 535.94,132.714 534.44,129.714 533.5,126.5C 533.36,120.464 533.693,114.464 534.5,108.5C 536.913,103.752 540.58,100.419 545.5,98.5C 550.13,97.7705 554.797,97.4372 559.5,97.5 Z"/></g>
<g><path style="opacity:1" fill="#6f727b" d="M 559.5,97.5 C 554.797,97.4372 550.13,97.7705 545.5,98.5C 548.017,97.027 550.85,96.3603 554,96.5C 556.033,96.5056 557.866,96.8389 559.5,97.5 Z"/></g>
<g><path style="opacity:1" fill="#d1d1d3" d="M 67.5,102.5 C 65.1667,101.167 62.8333,99.8333 60.5,98.5C 58.1051,95.1385 55.1051,92.4719 51.5,90.5C 49.5248,88.863 47.5248,87.1964 45.5,85.5C 43.1831,84.0584 41.0164,84.3918 39,86.5C 38.5,113.831 38.3334,141.165 38.5,168.5C 36.3792,168.325 34.3792,168.659 32.5,169.5C 31.4007,166.522 32.0674,163.856 34.5,161.5C 35.1924,162.025 35.6924,162.692 36,163.5C 36.1667,151 36.3333,138.5 36.5,126C 36.4634,112.739 35.7968,99.5722 34.5,86.5C 36.9305,83.0512 40.2638,81.0512 44.5,80.5C 47.512,80.1787 48.8453,81.512 48.5,84.5C 50.9424,84.3537 51.6091,85.187 50.5,87C 53.3452,87.5382 56.0119,88.5382 58.5,90C 59.8333,90.6667 59.8333,91.3333 58.5,92C 60.1341,92.4935 61.8008,92.6602 63.5,92.5C 63.7993,95.6421 65.4659,97.8088 68.5,99C 67.6634,100.011 67.33,101.178 67.5,102.5 Z"/></g>
<g><path style="opacity:1" fill="#c6c7ca" d="M 659.5,98.5 C 660.791,98.2627 661.791,98.596 662.5,99.5C 654.5,99.5 646.5,99.5 638.5,99.5C 638.5,105.167 638.5,110.833 638.5,116.5C 646.867,116.705 655.2,116.371 663.5,115.5C 662.653,116.966 661.32,117.8 659.5,118C 651.988,118.822 644.655,118.655 637.5,117.5C 637.5,111.167 637.5,104.833 637.5,98.5C 644.833,98.5 652.167,98.5 659.5,98.5 Z"/></g>
<g><path style="opacity:1" fill="#e4e4e6" d="M 81.5,78.5 C 100.816,93.819 119.816,109.486 138.5,125.5C 136.795,124.465 135.128,124.465 133.5,125.5C 130.715,122.774 127.382,121.107 123.5,120.5C 123.33,119.178 123.663,118.011 124.5,117C 122.624,115.625 120.624,114.458 118.5,113.5C 119.35,110.739 118.35,110.072 115.5,111.5C 112.063,108.319 109.563,104.986 108,101.5C 106.951,102.517 105.784,102.684 104.5,102C 103.057,99.047 100.723,97.547 97.5,97.5C 97.762,96.0222 97.4287,94.6888 96.5,93.5C 95.914,93.7093 95.414,94.0426 95,94.5C 93.8905,92.7571 92.3905,91.4238 90.5,90.5C 90.7093,89.914 91.0426,89.414 91.5,89C 89.4233,88.8078 87.4233,88.3078 85.5,87.5C 84.5037,85.1837 82.8371,83.517 80.5,82.5C 81.0253,81.8076 81.6919,81.3076 82.5,81C 81.7476,80.3292 81.4142,79.4959 81.5,78.5 Z"/></g>
<g><path style="opacity:1" fill="#e9e9eb" d="M 304.5,85.5 C 300.5,85.5 296.5,85.5 292.5,85.5C 291.833,100.167 291.167,114.833 290.5,129.5C 283.301,119.759 275.634,110.426 267.5,101.5C 264.589,96.2539 260.922,91.5873 256.5,87.5C 256.5,87.1667 256.5,86.8333 256.5,86.5C 260.324,86.7238 263.657,88.0571 266.5,90.5C 267.9,92.7817 267.234,94.2817 264.5,95C 265.108,95.8699 265.941,96.3699 267,96.5C 270.326,94.8926 271.492,95.7259 270.5,99C 272.863,99.5885 273.863,101.089 273.5,103.5C 274.833,103.5 276.167,103.5 277.5,103.5C 277.617,105.484 276.95,107.15 275.5,108.5C 276.594,110.836 277.927,110.836 279.5,108.5C 280.645,109.776 280.645,111.109 279.5,112.5C 283.107,113.809 286.774,114.809 290.5,115.5C 290.73,112.306 290.064,109.306 288.5,106.5C 290.297,99.2948 290.964,91.9615 290.5,84.5C 295.363,84.1805 300.03,84.5139 304.5,85.5 Z"/></g>
<g><path style="opacity:1" fill="#2d313c" d="M 761.5,107.5 C 763.828,112.776 766.162,118.11 768.5,123.5C 766.59,122.025 765.424,120.025 765,117.5C 763.581,116.54 762.081,115.707 760.5,115C 761.357,114.311 762.023,113.478 762.5,112.5C 761.691,110.929 761.357,109.262 761.5,107.5 Z"/></g>
<g><path style="opacity:1" fill="#f6f7f7" d="M 88.5,136.5 C 78.1716,148.161 67.5049,159.495 56.5,170.5C 55.1411,169.993 54.1411,168.993 53.5,167.5C 52.8076,162.952 52.1409,158.452 51.5,154C 51.8161,143.243 51.9828,132.41 52,121.5C 54.6782,119.153 57.3449,116.82 60,114.5C 61.5589,115.029 63.0589,115.696 64.5,116.5C 66.8333,115.5 67.5,116.167 66.5,118.5C 67.6888,119.429 69.0222,119.762 70.5,119.5C 73.8677,127.521 79.8677,132.187 88.5,133.5C 88.5,134.5 88.5,135.5 88.5,136.5 Z"/></g>
<g><path style="opacity:1" fill="#050a13" d="M 51.5,90.5 C 55.1051,92.4719 58.1051,95.1385 60.5,98.5C 58.5,100.167 56.5,101.833 54.5,103.5C 52.2459,102.585 50.2459,101.252 48.5,99.5C 48.44,98.9569 48.1067,98.6236 47.5,98.5C 46.5004,117.488 46.1671,136.488 46.5,155.5C 45.1667,155.5 43.8333,155.5 42.5,155.5C 42.2943,144.018 41.6276,132.685 40.5,121.5C 39.8441,116.646 41.5107,112.813 45.5,110C 45,109.5 44.5,109 44,108.5C 42.9887,109.337 41.8221,109.67 40.5,109.5C 40.1774,105.774 40.5108,102.107 41.5,98.5C 45.1654,96.1593 48.4988,93.4926 51.5,90.5 Z"/></g>
<g><path style="opacity:1" fill="#dedee0" d="M 83.5,115.5 C 85.1516,116.807 86.8182,116.807 88.5,115.5C 91.563,117.025 94.2297,119.025 96.5,121.5C 95.4647,123.128 95.4647,124.795 96.5,126.5C 91.8482,123.179 87.5149,119.513 83.5,115.5 Z"/></g>
<g><path style="opacity:1" fill="#06070e" d="M 45.5,85.5 C 44.3933,87.9689 42.3933,88.9689 39.5,88.5C 39.3334,114.502 39.5,140.502 40,166.5C 40.1736,163.129 41.6736,162.129 44.5,163.5C 45.4742,165.743 45.8076,168.076 45.5,170.5C 42.7379,169.871 40.4046,169.204 38.5,168.5C 38.3334,141.165 38.5,113.831 39,86.5C 41.0164,84.3918 43.1831,84.0584 45.5,85.5 Z"/></g>
<g><path style="opacity:1" fill="#d7d9db" d="M 257.5,108.5 C 261.878,113.545 265.878,118.878 269.5,124.5C 268.038,123.542 266.705,122.376 265.5,121C 264.216,120.316 263.049,120.483 262,121.5C 261.13,120.892 260.63,120.059 260.5,119C 262.389,115.476 261.389,113.643 257.5,113.5C 257.829,127.01 257.496,140.344 256.5,153.5C 256.171,138.324 256.504,123.324 257.5,108.5 Z"/></g>
<g><path style="opacity:1" fill="#e1e1e3" d="M 445.5,113.5 C 447.672,114.661 449.006,116.495 449.5,119C 447.704,122.62 445.37,125.787 442.5,128.5C 442.08,126.906 441.414,125.406 440.5,124C 442.361,121.249 444.361,118.583 446.5,116C 445.748,115.329 445.414,114.496 445.5,113.5 Z"/></g>
<g><path style="opacity:1" fill="#22232e" d="M 256.5,86.5 C 256.5,86.8333 256.5,87.1667 256.5,87.5C 255.292,86.7659 253.959,86.4326 252.5,86.5C 249.833,86.5 247.167,86.5 244.5,86.5C 244.5,108.5 244.5,130.5 244.5,152.5C 244.167,152.5 243.833,152.5 243.5,152.5C 243.5,130.167 243.5,107.833 243.5,85.5C 248.032,85.1818 252.366,85.5151 256.5,86.5 Z"/></g>
<g><path style="opacity:1" fill="#b9bdc2" d="M 534.5,108.5 C 533.693,114.464 533.36,120.464 533.5,126.5C 532.836,124.19 532.503,121.69 532.5,119C 532.304,115.195 532.97,111.695 534.5,108.5 Z"/></g>
<g><path style="opacity:1" fill="#a2a6aa" d="M 574.5,109.5 C 575.222,109.918 575.722,110.584 576,111.5C 576.816,116.684 576.65,121.684 575.5,126.5C 575.625,120.797 575.292,115.13 574.5,109.5 Z"/></g>
<g><path style="opacity:1" fill="#e7e8e9" d="M 753.5,120.5 C 753.357,122.262 753.691,123.929 754.5,125.5C 751.333,125.833 748.167,126.167 745,126.5C 741.424,126.485 738.258,125.818 735.5,124.5C 737.751,116.666 741.084,109.332 745.5,102.5C 748.751,108.256 751.417,114.256 753.5,120.5 Z"/></g>
<g><path style="opacity:1" fill="#353843" d="M 586.5,104.5 C 587.793,105.842 588.626,107.509 589,109.5C 589.818,115.349 589.652,121.015 588.5,126.5C 588.909,119.017 588.242,111.684 586.5,104.5 Z"/></g>
<g><path style="opacity:1" fill="#6e7179" d="M 355.5,112.5 C 366.167,112.5 376.833,112.5 387.5,112.5C 388.485,116.634 388.818,120.968 388.5,125.5C 377.5,125.5 366.5,125.5 355.5,125.5C 365.987,124.506 376.654,124.172 387.5,124.5C 387.5,120.833 387.5,117.167 387.5,113.5C 376.654,113.828 365.987,113.494 355.5,112.5 Z"/></g>
<g><path style="opacity:1" fill="#64656d" d="M 257.5,108.5 C 256.504,123.324 256.171,138.324 256.5,153.5C 251.968,153.818 247.634,153.485 243.5,152.5C 243.833,152.5 244.167,152.5 244.5,152.5C 248.167,152.5 251.833,152.5 255.5,152.5C 255.167,137.485 255.501,122.485 256.5,107.5C 257.107,107.624 257.44,107.957 257.5,108.5 Z"/></g>
<g><path style="opacity:1" fill="#040c18" d="M 252.5,86.5 C 248.816,88.1224 248.816,89.4557 252.5,90.5C 255.435,89.2616 256.935,90.2616 257,93.5C 253.606,92.5442 250.106,92.2108 246.5,92.5C 245.307,95.7729 245.14,102.44 246,112.5C 248.657,111.255 250.49,109.255 251.5,106.5C 253.828,105.276 256.161,105.276 258.5,106.5C 259.771,100.785 262.771,99.1187 267.5,101.5C 275.634,110.426 283.301,119.759 290.5,129.5C 290.56,130.043 290.893,130.376 291.5,130.5C 292.499,115.848 292.833,101.182 292.5,86.5C 296.167,86.5 299.833,86.5 303.5,86.5C 303.5,108.5 303.5,130.5 303.5,152.5C 299.833,152.5 296.167,152.5 292.5,152.5C 291.833,151.5 291.167,150.5 290.5,149.5C 288.658,142.322 289.658,141.822 293.5,148C 296.43,148.606 299.263,149.44 302,150.5C 302.749,149.365 302.583,148.365 301.5,147.5C 297.483,147.165 294.483,145.332 292.5,142C 293.849,137.459 296.349,136.292 300,138.5C 303.758,134.43 302.925,132.597 297.5,133C 295.895,134.36 294.395,135.86 293,137.5C 289.543,135.768 286.709,136.434 284.5,139.5C 285.127,140.417 285.461,141.417 285.5,142.5C 280.833,137.167 276.167,131.833 271.5,126.5C 271.167,125.5 270.5,124.833 269.5,124.5C 265.878,118.878 261.878,113.545 257.5,108.5C 257.44,107.957 257.107,107.624 256.5,107.5C 255.501,122.485 255.167,137.485 255.5,152.5C 251.833,152.5 248.167,152.5 244.5,152.5C 244.5,130.5 244.5,108.5 244.5,86.5C 247.167,86.5 249.833,86.5 252.5,86.5 Z"/></g>
<g><path style="opacity:1" fill="#040e1b" d="M 252.5,86.5 C 253.959,86.4326 255.292,86.7659 256.5,87.5C 260.922,91.5873 264.589,96.2539 267.5,101.5C 262.771,99.1187 259.771,100.785 258.5,106.5C 256.161,105.276 253.828,105.276 251.5,106.5C 250.49,109.255 248.657,111.255 246,112.5C 245.14,102.44 245.307,95.7729 246.5,92.5C 250.106,92.2108 253.606,92.5442 257,93.5C 256.935,90.2616 255.435,89.2616 252.5,90.5C 248.816,89.4557 248.816,88.1224 252.5,86.5 Z"/></g>
<g><path style="opacity:1" fill="#8d9097" d="M 753.5,120.5 C 755.736,122.574 756.403,124.908 755.5,127.5C 748.087,128.128 741.087,127.461 734.5,125.5C 734.5,124.833 734.833,124.5 735.5,124.5C 738.258,125.818 741.424,126.485 745,126.5C 748.167,126.167 751.333,125.833 754.5,125.5C 753.691,123.929 753.357,122.262 753.5,120.5 Z"/></g>
<g><path style="opacity:1" fill="#2f3440" d="M 624.5,85.5 C 638.01,85.1711 651.344,85.5044 664.5,86.5C 651.5,86.5 638.5,86.5 625.5,86.5C 625.5,108.5 625.5,130.5 625.5,152.5C 625.167,152.5 624.833,152.5 624.5,152.5C 624.5,130.167 624.5,107.833 624.5,85.5 Z"/></g>
<g><path style="opacity:1" fill="#7e838b" d="M 667.5,127.5 C 666.89,128.391 666.557,129.391 666.5,130.5C 665.115,129.053 665.448,128.053 667.5,127.5 Z"/></g>
<g><path style="opacity:1" fill="#ededed" d="M 355.5,125.5 C 366.5,125.5 377.5,125.5 388.5,125.5C 388.5,126.5 388.5,127.5 388.5,128.5C 379.827,128.334 371.16,128.5 362.5,129C 361.164,131.81 360.831,134.643 361.5,137.5C 372.363,138.056 383.029,139.056 393.5,140.5C 380.833,140.5 368.167,140.5 355.5,140.5C 355.5,135.5 355.5,130.5 355.5,125.5 Z"/></g>
<g><path style="opacity:1" fill="#dedfe0" d="M 271.5,126.5 C 276.167,131.833 280.833,137.167 285.5,142.5C 286.11,143.391 286.443,144.391 286.5,145.5C 284.774,145.815 283.107,145.981 281.5,146C 281.167,145.667 280.833,145.333 280.5,145C 283.106,141.997 282.44,141.164 278.5,142.5C 277.943,139.02 275.943,137.353 272.5,137.5C 272.374,135.8 271.707,134.3 270.5,133C 272.059,130.831 272.392,128.665 271.5,126.5 Z"/></g>
<g><path style="opacity:1" fill="#e0e1e3" d="M 651.5,130.5 C 656.982,137.449 661.982,144.783 666.5,152.5C 666.5,152.833 666.5,153.167 666.5,153.5C 663.994,152.25 661.327,151.584 658.5,151.5C 658.449,149.43 659.115,147.597 660.5,146C 659.352,144.274 658.185,144.441 657,146.5C 655.318,145.135 655.151,143.635 656.5,142C 655.24,140.887 654.073,140.72 653,141.5C 651.226,139.349 649.726,137.016 648.5,134.5C 645.232,133.513 641.898,133.18 638.5,133.5C 638.823,140.022 638.49,146.355 637.5,152.5C 637.5,145.167 637.5,137.833 637.5,130.5C 642.167,130.5 646.833,130.5 651.5,130.5 Z"/></g>
<g><path style="opacity:1" fill="#0f1724" d="M 734.5,125.5 C 741.087,127.461 748.087,128.128 755.5,127.5C 752.695,128.319 749.695,128.819 746.5,129C 746.167,129.333 745.833,129.667 745.5,130C 746.5,130.333 747.5,130.667 748.5,131C 748.167,131.333 747.833,131.667 747.5,132C 743.848,132.499 740.182,132.665 736.5,132.5C 736.33,133.822 736.663,134.989 737.5,136C 736.167,136.333 734.833,136.667 733.5,137C 742.98,137.901 752.313,138.735 761.5,139.5C 750.5,139.5 739.5,139.5 728.5,139.5C 726.949,142.619 725.949,145.952 725.5,149.5C 724.833,149.5 724.5,149.833 724.5,150.5C 723.662,150.842 723.328,151.508 723.5,152.5C 718.706,153.097 714.373,152.43 710.5,150.5C 710.5,150.167 710.5,149.833 710.5,149.5C 712.646,145.28 714.646,140.947 716.5,136.5C 720.469,127.953 724.136,119.286 727.5,110.5C 727.833,110.5 728.167,110.5 728.5,110.5C 729.8,109.892 731.133,109.225 732.5,108.5C 737.341,109.664 738.341,112.164 735.5,116C 732.829,117.544 729.996,118.71 727,119.5C 726.667,119.167 726.333,118.833 726,118.5C 724.885,120 724.052,121.667 723.5,123.5C 726.484,125.001 729.651,126.001 733,126.5C 733.383,125.944 733.883,125.611 734.5,125.5 Z"/></g>
<g><path style="opacity:1" fill="#d8d8db" d="M 96.5,126.5 C 98.0443,126.703 99.3777,127.37 100.5,128.5C 101.167,128.167 101.833,127.833 102.5,127.5C 103.255,132.453 105.922,134.287 110.5,133C 112.385,135.383 114.718,137.216 117.5,138.5C 116.15,140.783 116.483,142.783 118.5,144.5C 110.871,138.871 103.537,132.871 96.5,126.5 Z"/></g>
<g><path style="opacity:1" fill="#30323c" d="M 768.5,123.5 C 770.267,125.792 771.267,128.458 771.5,131.5C 771.427,133.027 772.094,134.027 773.5,134.5C 774.441,136.05 775.107,137.716 775.5,139.5C 771.207,135.253 768.874,129.919 768.5,123.5 Z"/></g>
<g><path style="opacity:1" fill="#7d8189" d="M 771.5,131.5 C 772.906,131.973 773.573,132.973 773.5,134.5C 772.094,134.027 771.427,133.027 771.5,131.5 Z"/></g>
<g><path style="opacity:1" fill="#e3e4e6" d="M 138.5,125.5 C 148.625,133.119 158.625,140.952 168.5,149C 171.498,149.891 174.164,149.391 176.5,147.5C 176.586,148.496 176.252,149.329 175.5,150C 170.138,152.331 165.138,151.665 160.5,148C 159.663,146.989 159.33,145.822 159.5,144.5C 154.729,141.908 150.062,139.075 145.5,136C 146.167,135.333 146.833,134.667 147.5,134C 141.581,134.367 138.581,131.534 138.5,125.5 Z"/></g>
<g><path style="opacity:1" fill="#050e1f" d="M 290.5,149.5 C 289.527,147.861 288.194,146.527 286.5,145.5C 286.443,144.391 286.11,143.391 285.5,142.5C 285.461,141.417 285.127,140.417 284.5,139.5C 286.709,136.434 289.543,135.768 293,137.5C 294.395,135.86 295.895,134.36 297.5,133C 302.925,132.597 303.758,134.43 300,138.5C 296.349,136.292 293.849,137.459 292.5,142C 294.483,145.332 297.483,147.165 301.5,147.5C 302.583,148.365 302.749,149.365 302,150.5C 299.263,149.44 296.43,148.606 293.5,148C 289.658,141.822 288.658,142.322 290.5,149.5 Z"/></g>
<g><path style="opacity:1" fill="#3b3f4a" d="M 572.5,133.5 C 571.833,136.167 570.167,137.833 567.5,138.5C 568.833,136.5 570.5,134.833 572.5,133.5 Z"/></g>
<g><path style="opacity:1" fill="#62646e" d="M 651.5,130.5 C 646.833,130.5 642.167,130.5 637.5,130.5C 637.5,137.833 637.5,145.167 637.5,152.5C 633.167,153.833 628.833,153.833 624.5,152.5C 624.833,152.5 625.167,152.5 625.5,152.5C 629.167,152.5 632.833,152.5 636.5,152.5C 636.5,144.833 636.5,137.167 636.5,129.5C 641.695,129.179 646.695,129.513 651.5,130.5 Z"/></g>
<g><path style="opacity:1" fill="#0d1320" d="M 60.5,98.5 C 62.8333,99.8333 65.1667,101.167 67.5,102.5C 72.248,107.584 77.5813,111.917 83.5,115.5C 87.5149,119.513 91.8482,123.179 96.5,126.5C 103.537,132.871 110.871,138.871 118.5,144.5C 118.5,144.833 118.5,145.167 118.5,145.5C 114.838,145.723 111.505,146.723 108.5,148.5C 104.897,146.237 101.564,143.57 98.5,140.5C 96.812,141.521 95.4787,142.855 94.5,144.5C 89.7112,148.745 85.3779,153.411 81.5,158.5C 76.1275,162.871 71.4608,167.871 67.5,173.5C 65.086,174.911 63.4194,176.911 62.5,179.5C 60.8452,178.07 58.8452,177.236 56.5,177C 54.8446,175.556 54.178,173.722 54.5,171.5C 55.4916,171.672 56.1583,171.338 56.5,170.5C 67.5049,159.495 78.1716,148.161 88.5,136.5C 89.4778,136.189 90.1445,135.522 90.5,134.5C 89.6872,133.186 88.6872,132.019 87.5,131C 75.7256,122.722 64.7256,113.556 54.5,103.5C 56.5,101.833 58.5,100.167 60.5,98.5 Z"/></g>
<g><path style="opacity:1" fill="#dedfe0" d="M 470.5,146.5 C 468.862,145.086 467.528,145.42 466.5,147.5C 465.073,144.91 462.907,143.244 460,142.5C 460.027,140.583 460.861,138.916 462.5,137.5C 459.514,134.015 456.18,133.682 452.5,136.5C 453.789,133.714 455.622,131.381 458,129.5C 462.664,134.84 466.831,140.506 470.5,146.5 Z"/></g>
<g><path style="opacity:1" fill="#e0e1e2" d="M 452.5,136.5 C 451.014,139.371 452.014,140.705 455.5,140.5C 455.5,141.5 455.5,142.5 455.5,143.5C 454.5,143.5 453.5,143.5 452.5,143.5C 452.5,144.833 452.5,146.167 452.5,147.5C 450.473,147.338 448.473,147.505 446.5,148C 447.93,149.88 447.596,151.38 445.5,152.5C 444.264,151.754 442.93,151.421 441.5,151.5C 444.788,146.214 448.454,141.214 452.5,136.5 Z"/></g>
<g><path style="opacity:1" fill="#d3d4d6" d="M 519.5,112.5 C 519.171,119.241 519.671,125.908 521,132.5C 523.884,139.88 528.717,145.546 535.5,149.5C 535.5,149.833 535.5,150.167 535.5,150.5C 531.26,150.405 527.26,149.072 523.5,146.5C 523.079,144.09 521.746,142.257 519.5,141C 521.255,140.28 522.089,139.113 522,137.5C 520.887,136.289 519.72,136.289 518.5,137.5C 517.28,137.113 516.613,136.28 516.5,135C 517.217,133.469 518.217,132.136 519.5,131C 518.209,124.692 518.209,118.525 519.5,112.5 Z"/></g>
<g><path style="opacity:1" fill="#7c7f86" d="M 355.5,125.5 C 355.5,130.5 355.5,135.5 355.5,140.5C 368.167,140.5 380.833,140.5 393.5,140.5C 393.5,140.833 393.5,141.167 393.5,141.5C 393.167,141.5 392.833,141.5 392.5,141.5C 379.833,141.5 367.167,141.5 354.5,141.5C 354.179,135.974 354.512,130.64 355.5,125.5 Z"/></g>
<g><path style="opacity:1" fill="#e9e9eb" d="M 761.5,139.5 C 763.162,143.456 764.829,147.456 766.5,151.5C 770.715,153.436 775.381,154.103 780.5,153.5C 780.829,150.772 780.163,148.438 778.5,146.5C 778.443,145.391 778.11,144.391 777.5,143.5C 779.792,143.244 781.959,143.577 784,144.5C 782.575,147.532 781.741,150.865 781.5,154.5C 776.167,154.5 770.833,154.5 765.5,154.5C 766.186,150.343 764.686,149.009 761,150.5C 759.221,148.054 756.888,146.387 754,145.5C 753.544,144.256 754.044,143.423 755.5,143C 747.5,142.333 739.5,142.333 731.5,143C 732.576,144.726 732.743,146.559 732,148.5C 729.738,149.169 727.571,149.502 725.5,149.5C 725.949,145.952 726.949,142.619 728.5,139.5C 739.5,139.5 750.5,139.5 761.5,139.5 Z"/></g>
<g><path style="opacity:1" fill="#dedee1" d="M 716.5,136.5 C 714.646,140.947 712.646,145.28 710.5,149.5C 710.5,148.5 710.5,147.5 710.5,146.5C 709.5,146.5 708.5,146.5 707.5,146.5C 707.038,141.756 708.538,140.756 712,143.5C 712.309,142.234 712.809,141.067 713.5,140C 709.917,138.303 709.584,136.137 712.5,133.5C 713.642,134.826 714.976,135.826 716.5,136.5 Z"/></g>
<g><path style="opacity:1" fill="#dedee1" d="M 118.5,145.5 C 118.5,145.167 118.5,144.833 118.5,144.5C 123.262,144.188 127.595,145.688 131.5,149C 133.392,152.421 135.058,155.921 136.5,159.5C 134.246,158.585 132.246,157.252 130.5,155.5C 126.817,151.82 122.817,148.486 118.5,145.5 Z"/></g>
<g><path style="opacity:1" fill="#535b64" d="M 48.5,99.5 C 47.5025,122.327 47.1692,145.327 47.5,168.5C 46.5151,164.366 46.1818,160.032 46.5,155.5C 46.1671,136.488 46.5004,117.488 47.5,98.5C 48.1067,98.6236 48.44,98.9569 48.5,99.5 Z"/></g>
<g><path style="opacity:1" fill="#d5d6d9" d="M 579.5,145.5 C 578.193,146.802 578.193,148.135 579.5,149.5C 574.531,153.826 568.865,155.492 562.5,154.5C 562.649,155.552 562.483,156.552 562,157.5C 557.284,155.898 552.45,154.898 547.5,154.5C 553.203,154.625 558.87,154.292 564.5,153.5C 567.491,153.834 569.824,152.834 571.5,150.5C 574.184,148.807 576.851,147.14 579.5,145.5 Z"/></g>
<g><path style="opacity:1" fill="#0b1017" d="M 118.5,145.5 C 122.817,148.486 126.817,151.82 130.5,155.5C 128.833,157.833 126.833,159.833 124.5,161.5C 118.76,157.635 113.427,153.302 108.5,148.5C 111.505,146.723 114.838,145.723 118.5,145.5 Z"/></g>
<g><path style="opacity:1" fill="#686c73" d="M 535.5,150.5 C 535.5,150.167 535.5,149.833 535.5,149.5C 537.027,149.427 538.027,150.094 538.5,151.5C 537.391,151.443 536.391,151.11 535.5,150.5 Z"/></g>
<g><path style="opacity:1" fill="#4a4e57" d="M 392.5,141.5 C 392.833,141.5 393.167,141.5 393.5,141.5C 393.5,145.5 393.5,149.5 393.5,153.5C 376.325,153.83 359.325,153.497 342.5,152.5C 359.167,152.5 375.833,152.5 392.5,152.5C 392.5,148.833 392.5,145.167 392.5,141.5 Z"/></g>
<g><path style="opacity:1" fill="#4e535d" d="M 426.5,151.5 C 430.97,152.486 435.637,152.819 440.5,152.5C 435.652,153.814 430.652,153.814 425.5,152.5C 425.624,151.893 425.957,151.56 426.5,151.5 Z"/></g>
<g><path style="opacity:1" fill="#494c56" d="M 489.5,151.5 C 490.043,151.56 490.376,151.893 490.5,152.5C 485.348,153.814 480.348,153.814 475.5,152.5C 480.363,152.819 485.03,152.486 489.5,151.5 Z"/></g>
<g><path style="opacity:1" fill="#a1a3aa" d="M 538.5,151.5 C 541.157,151.935 543.491,152.935 545.5,154.5C 542.654,154.448 540.32,153.448 538.5,151.5 Z"/></g>
<g><path style="opacity:1" fill="#9a9ca3" d="M 571.5,150.5 C 569.824,152.834 567.491,153.834 564.5,153.5C 566.509,151.935 568.843,150.935 571.5,150.5 Z"/></g>
<g><path style="opacity:1" fill="#4f525a" d="M 679.5,149.5 C 681.104,150.287 681.771,151.62 681.5,153.5C 676.5,153.5 671.5,153.5 666.5,153.5C 666.5,153.167 666.5,152.833 666.5,152.5C 671.179,152.666 675.845,152.499 680.5,152C 679.748,151.329 679.414,150.496 679.5,149.5 Z"/></g>
<g><path style="opacity:1" fill="#50535d" d="M 710.5,150.5 C 714.373,152.43 718.706,153.097 723.5,152.5C 719.03,153.486 714.363,153.819 709.5,153.5C 709.263,152.209 709.596,151.209 710.5,150.5 Z"/></g>
<g><path style="opacity:1" fill="#4f515c" d="M 778.5,146.5 C 780.163,148.438 780.829,150.772 780.5,153.5C 775.381,154.103 770.715,153.436 766.5,151.5C 770.785,152.77 775.119,152.77 779.5,151.5C 778.691,149.929 778.357,148.262 778.5,146.5 Z"/></g>
<g><path style="opacity:1" fill="#c1c2c8" d="M 724.5,150.5 C 724.5,151.833 724.5,153.167 724.5,154.5C 719.305,154.821 714.305,154.487 709.5,153.5C 714.363,153.819 719.03,153.486 723.5,152.5C 723.328,151.508 723.662,150.842 724.5,150.5 Z"/></g>
<g><path style="opacity:1" fill="#e4e5e6" d="M 108.5,148.5 C 113.427,153.302 118.76,157.635 124.5,161.5C 126.527,164.194 128.861,166.527 131.5,168.5C 129.611,167.62 127.611,167.62 125.5,168.5C 125.657,167.127 125.49,165.793 125,164.5C 124.586,164.957 124.086,165.291 123.5,165.5C 121.929,163.585 119.929,162.585 117.5,162.5C 117.5,161.5 117.5,160.5 117.5,159.5C 114.201,157.184 110.534,155.35 106.5,154C 105.687,152.686 104.687,151.519 103.5,150.5C 104.891,148.064 104.391,147.398 102,148.5C 101.085,147.672 100.419,146.672 100,145.5C 99.6667,145.833 99.3333,146.167 99,146.5C 97.6703,145.418 96.1703,144.751 94.5,144.5C 95.4787,142.855 96.812,141.521 98.5,140.5C 101.564,143.57 104.897,146.237 108.5,148.5 Z"/></g>
<g><path style="opacity:1" fill="#0e1521" d="M 130.5,155.5 C 132.246,157.252 134.246,158.585 136.5,159.5C 140.847,163.845 145.514,167.845 150.5,171.5C 151.804,174.569 153.804,175.569 156.5,174.5C 157.262,172.738 158.596,171.738 160.5,171.5C 162.027,171.573 163.027,170.906 163.5,169.5C 167.798,168.8 172.131,168.467 176.5,168.5C 194.623,174.739 199.457,186.406 191,203.5C 187.472,208.166 182.972,211.166 177.5,212.5C 172.012,212.752 166.678,212.085 161.5,210.5C 159.938,210.267 158.605,209.6 157.5,208.5C 151.879,202.308 149.212,194.975 149.5,186.5C 149.657,185.127 149.49,183.793 149,182.5C 143.003,178 137.17,173.333 131.5,168.5C 128.861,166.527 126.527,164.194 124.5,161.5C 126.833,159.833 128.833,157.833 130.5,155.5 Z"/></g>
<g><path style="opacity:1" fill="#e2e2e4" d="M 81.5,158.5 C 81.6775,159.695 82.0109,160.862 82.5,162C 81.8626,163.713 80.8626,163.879 79.5,162.5C 77.0638,163.501 77.0638,164.668 79.5,166C 77.9762,167.194 76.8096,168.694 76,170.5C 75.3333,171.833 74.6667,171.833 74,170.5C 73.0766,171.759 72.2432,173.092 71.5,174.5C 70.2638,173.754 68.9305,173.421 67.5,173.5C 71.4608,167.871 76.1275,162.871 81.5,158.5 Z"/></g>
<g><path style="opacity:1" fill="#81858b" d="M 176.5,168.5 C 172.131,168.467 167.798,168.8 163.5,169.5C 165.848,168.048 168.514,167.382 171.5,167.5C 173.369,167.507 175.036,167.84 176.5,168.5 Z"/></g>
<g><path style="opacity:1" fill="#0b111c" d="M 45.5,85.5 C 47.5248,87.1964 49.5248,88.863 51.5,90.5C 48.4988,93.4926 45.1654,96.1593 41.5,98.5C 40.5108,102.107 40.1774,105.774 40.5,109.5C 41.8221,109.67 42.9887,109.337 44,108.5C 44.5,109 45,109.5 45.5,110C 41.5107,112.813 39.8441,116.646 40.5,121.5C 41.6276,132.685 42.2943,144.018 42.5,155.5C 43.8333,155.5 45.1667,155.5 46.5,155.5C 46.1818,160.032 46.5151,164.366 47.5,168.5C 50.1192,168.925 52.4525,169.925 54.5,171.5C 54.178,173.722 54.8446,175.556 56.5,177C 58.8452,177.236 60.8452,178.07 62.5,179.5C 66.8893,188.22 66.2226,196.553 60.5,204.5C 59.0937,204.973 58.427,205.973 58.5,207.5C 54.749,209.707 50.749,211.374 46.5,212.5C 41.3457,212.706 36.3457,212.039 31.5,210.5C 31.0269,209.094 30.0269,208.427 28.5,208.5C 18.4348,199.065 16.9348,188.398 24,176.5C 26.4162,173.577 29.2496,171.243 32.5,169.5C 34.3792,168.659 36.3792,168.325 38.5,168.5C 40.4046,169.204 42.7379,169.871 45.5,170.5C 45.8076,168.076 45.4742,165.743 44.5,163.5C 41.6736,162.129 40.1736,163.129 40,166.5C 39.5,140.502 39.3334,114.502 39.5,88.5C 42.3933,88.9689 44.3933,87.9689 45.5,85.5 Z"/></g>
<g><path style="opacity:1" fill="#585e66" d="M 163.5,169.5 C 163.027,170.906 162.027,171.573 160.5,171.5C 160.973,170.094 161.973,169.427 163.5,169.5 Z"/></g>
<g><path style="opacity:1" fill="#999ba1" d="M 150.5,171.5 C 152.5,172.5 154.5,173.5 156.5,174.5C 153.804,175.569 151.804,174.569 150.5,171.5 Z"/></g>
<g><path style="opacity:1" fill="#b5b7bd" d="M 48.5,178.5 C 44.5,178.5 40.5,178.5 36.5,178.5C 40.4697,175.921 44.4697,175.921 48.5,178.5 Z"/></g>
<g><path style="opacity:1" fill="#e3e3e5" d="M 36.5,178.5 C 40.5,178.5 44.5,178.5 48.5,178.5C 57.24,183.797 58.74,190.797 53,199.5C 52.1841,200.823 51.0174,201.489 49.5,201.5C 47.0514,196.159 48.7181,193.825 54.5,194.5C 54.8158,191.022 54.3158,187.688 53,184.5C 52.2753,185.059 51.4419,185.392 50.5,185.5C 48.7099,184.214 47.0432,182.714 45.5,181C 42.3146,180.265 39.3146,180.765 36.5,182.5C 35.1508,182.154 33.8175,181.821 32.5,181.5C 33.2623,179.738 34.5956,178.738 36.5,178.5 Z"/></g>
<g><path style="opacity:1" fill="#f5f5f6" d="M 177.5,178.5 C 179.23,179.026 180.564,180.026 181.5,181.5C 181.539,182.583 181.873,183.583 182.5,184.5C 181.217,189.741 179.217,194.741 176.5,199.5C 173.09,201.301 169.424,201.468 165.5,200C 166.849,198.365 166.682,196.865 165,195.5C 163.89,197.037 162.39,197.703 160.5,197.5C 158.395,193.575 158.062,189.575 159.5,185.5C 160.458,185.047 161.292,184.381 162,183.5C 163.818,185.645 165.318,185.645 166.5,183.5C 164.027,181.902 164.027,180.402 166.5,179C 170.152,178.501 173.818,178.335 177.5,178.5 Z"/></g>
<g><path style="opacity:1" fill="#f9f9f9" d="M 49.5,201.5 C 45.2022,202.2 40.8689,202.533 36.5,202.5C 36.6495,201.448 36.4828,200.448 36,199.5C 34.6329,200.524 33.7995,200.024 33.5,198C 34.9304,196.111 35.5971,193.945 35.5,191.5C 35.0733,187.984 34.0733,184.651 32.5,181.5C 33.8175,181.821 35.1508,182.154 36.5,182.5C 39.3146,180.765 42.3146,180.265 45.5,181C 47.0432,182.714 48.7099,184.214 50.5,185.5C 51.4419,185.392 52.2753,185.059 53,184.5C 54.3158,187.688 54.8158,191.022 54.5,194.5C 48.7181,193.825 47.0514,196.159 49.5,201.5 Z"/></g>
<g><path style="opacity:1" fill="#d5d6d9" d="M 177.5,178.5 C 173.818,178.335 170.152,178.501 166.5,179C 164.027,180.402 164.027,181.902 166.5,183.5C 165.318,185.645 163.818,185.645 162,183.5C 161.292,184.381 160.458,185.047 159.5,185.5C 163.297,177.671 169.297,175.338 177.5,178.5 Z"/></g>
<g><path style="opacity:1" fill="#d9d9dc" d="M 32.5,181.5 C 34.0733,184.651 35.0733,187.984 35.5,191.5C 35.5971,193.945 34.9304,196.111 33.5,198C 33.7995,200.024 34.6329,200.524 36,199.5C 36.4828,200.448 36.6495,201.448 36.5,202.5C 40.8689,202.533 45.2022,202.2 49.5,201.5C 42.5953,206.153 36.4286,205.153 31,198.5C 28.8341,194.753 28.1675,190.753 29,186.5C 29.6972,184.416 30.8639,182.749 32.5,181.5 Z"/></g>
<g><path style="opacity:1" fill="#e0e1e3" d="M 181.5,181.5 C 183.173,182.343 184.34,183.676 185,185.5C 186.779,192.834 184.612,198.667 178.5,203C 170.864,206.29 164.864,204.457 160.5,197.5C 162.39,197.703 163.89,197.037 165,195.5C 166.682,196.865 166.849,198.365 165.5,200C 169.424,201.468 173.09,201.301 176.5,199.5C 179.217,194.741 181.217,189.741 182.5,184.5C 181.873,183.583 181.539,182.583 181.5,181.5 Z"/></g>
<g><path style="opacity:1" fill="#dcdcde" d="M 149.5,186.5 C 149.212,194.975 151.879,202.308 157.5,208.5C 156.417,208.539 155.417,208.873 154.5,209.5C 153.289,208.726 153.289,207.893 154.5,207C 152.744,206.798 151.078,206.298 149.5,205.5C 150.833,204.38 151.333,203.047 151,201.5C 149.293,202.138 147.46,202.138 145.5,201.5C 147.245,196.658 148.578,191.658 149.5,186.5 Z"/></g>
<g><path style="opacity:1" fill="#9b9ca4" d="M 60.5,204.5 C 60.573,206.027 59.9063,207.027 58.5,207.5C 58.427,205.973 59.0937,204.973 60.5,204.5 Z"/></g>
<g><path style="opacity:1" fill="#5e5f6b" d="M 28.5,208.5 C 30.0269,208.427 31.0269,209.094 31.5,210.5C 29.9731,210.573 28.9731,209.906 28.5,208.5 Z"/></g>
<g><path style="opacity:1" fill="#65666d" d="M 31.5,210.5 C 36.3457,212.039 41.3457,212.706 46.5,212.5C 43.0242,213.643 39.3575,213.81 35.5,213C 33.9336,212.392 32.6002,211.558 31.5,210.5 Z"/></g>
<g><path style="opacity:1" fill="#666a71" d="M 161.5,210.5 C 166.678,212.085 172.012,212.752 177.5,212.5C 174.024,213.643 170.358,213.81 166.5,213C 164.509,212.626 162.842,211.793 161.5,210.5 Z"/></g>
</svg>
